<svg id="Layer_1"  fill='rgb(55, 55, 90)' data-name="Layer 1" xmlns="http://www.w3.org/2000/svg" viewBox="0 0 474 127"><defs><style>.cls-1{fill:#fff;}.cls-2{fill:#00a5bb;}</style></defs><title>CARRINHO</title><path id="Caminho_2" data-name="Caminho 2" class="cls-1" d="M392.51,102.69V25.26H373.56V53.49H346.51V25.26H328.25v77.43h18.26V72.44h27.05v30.25Z"/><path id="Caminho_3" data-name="Caminho 3" class="cls-1" d="M326.37,102.75V25.33H307.42V64.09L268.54,25.33h-7.12v77.42h18.94V63.88l38.77,38.88Z"/><path id="Caminho_4" data-name="Caminho 4" class="cls-1" d="M110.32,92.39l4.87,10.36h18.74L97.52,25.36H89.28l-36.13,77.4H71.9l4.76-10.37ZM93.55,56.1l9.51,20.64H83.92Z"/><path id="Caminho_5" data-name="Caminho 5" class="cls-2" d="M259.4,43V25.35H241.76Z"/><path id="Caminho_6" data-name="Caminho 6" class="cls-2" d="M62,79.42a19.46,19.46,0,0,1-9.3,2.26c-10.78,0-18.61-7.84-18.61-18.62s7.83-18.62,18.6-18.62a20.67,20.67,0,0,1,6.43,1l8.87-19a39.66,39.66,0,1,0-16.83,76.24Z"/><path id="Caminho_7" data-name="Caminho 7" class="cls-1" d="M167,102.76h21.83l-16.4-28,.56-.52a28.17,28.17,0,0,0-19.11-48.88H121.44v46.4l14.58,31h4.37v-21h14.39ZM140.39,65.62V41h13.85A12.37,12.37,0,0,1,166.6,53.36a12.19,12.19,0,0,1-12.1,12.26H140.39Z"/><path id="Caminho_8" data-name="Caminho 8" class="cls-1" d="M221.81,102.76h21.83l-16.37-28,.56-.52a28.17,28.17,0,0,0-19.15-48.88H164.39a30,30,0,0,1,10.49,49.77L191,102.78h4.12V81.72h14.38ZM195.16,65.62V41H209a12.37,12.37,0,0,1,12.37,12.36,12.19,12.19,0,0,1-12.12,12.26H195.16Z"/><path id="Caminho_9" data-name="Caminho 9" class="cls-1" d="M240.49,26.81V93.64l5.33,9.11h13.63v-57Z"/><path class="cls-1" d="M444.38,35.28a38.56,38.56,0,0,0-51.84.1V92.79a38.71,38.71,0,0,0,51.84-57.51ZM439.89,65a21,21,0,1,1-42.07,0h0a21,21,0,0,1,42.07,0Z"/></svg>